<?xml version="1.0" encoding="utf-8"?>
<!-- Generator: Adobe Illustrator 17.0.2, SVG Export Plug-In . SVG Version: 6.00 Build 0)  -->
<!DOCTYPE svg PUBLIC "-//W3C//DTD SVG 1.1//EN" "http://www.w3.org/Graphics/SVG/1.1/DTD/svg11.dtd">
<svg version="1.1" xmlns="http://www.w3.org/2000/svg" xmlns:xlink="http://www.w3.org/1999/xlink" x="0px" y="0px"
	 width="283.46px" height="283.46px" viewBox="0 0 283.46 283.46" enable-background="new 0 0 283.46 283.46" xml:space="preserve">
<g id="Layer_4" display="none">
	<rect x="7" display="inline" fill-rule="evenodd" clip-rule="evenodd" fill="#EF4136" width="276.46" height="273"/>
</g>
<g id="Layer_6">
	<g>
		<path fill-rule="evenodd" clip-rule="evenodd" d="M190.61,143.738c22.208,2.459,41.02,12.435,49.057,26.475
			c-12.925,3.906-25.806,9.436-37.377,15.574c-10.466,5.552-23.846,12.81-31.146,21.024c-6.153,6.922-10.412,18.337-14.795,27.254
			c-4.646,9.452-8.233,19.561-12.459,29.59c-11.528-18.853-14.736-40.492-28.033-56.066c-7.455-8.732-20.339-16.02-31.147-21.803
			c-11.45-6.128-24.38-11.544-37.377-15.574c7.572-14.244,26.633-23.711,48.278-26.475c18.434-28.375,20.635-36.767,46.721-51.393
			C166.082,101.105,187.31,134.061,190.61,143.738z M144.668,104.025c-22.503,8.644-31.436,30.859-42.827,50.614
			c-18.9-0.731-33.316,3.022-42.049,12.459c21.229,4.208,35.959,14.915,51.393,24.918c-2.103-6.463-5.205-11.926-7.008-18.689
			c-7.999-4.721-19.702-5.734-30.369-7.787c8.996-3.766,24.507-4.165,34.262-0.779c13.007,23.593,23.091,50.105,35.82,73.976
			c4.289-10.919,10.399-22.953,17.131-37.377c4.015-8.604,11.69-32.071,18.689-36.599c7.676-4.963,24.656-2.578,33.482,1.559
			c-11.831,0.107-20.977,2.902-29.59,6.229c-2.229,6.082-7.066,13.691-7.008,19.468c13.842-11.336,30.82-19.535,49.836-25.696
			c-9.334-8.576-23.103-12.719-42.049-11.681C174.834,134.078,163.733,115.069,144.668,104.025z"/>
		<path display="none" fill-rule="evenodd" clip-rule="evenodd" fill="#FFFFFF" d="M184.381,154.64
			c18.946-1.038,32.715,3.104,42.049,11.681c-19.016,6.161-35.994,14.36-49.836,25.696c-0.059-5.777,4.778-13.386,7.008-19.468
			c8.613-3.326,17.759-6.121,29.59-6.229c-8.826-4.137-25.807-6.521-33.482-1.559c-6.999,4.527-14.674,27.995-18.689,36.599
			c-6.731,14.424-12.842,26.458-17.131,37.377c-12.729-23.87-22.813-50.383-35.82-73.976c-9.755-3.386-25.266-2.986-34.262,0.779
			c10.667,2.053,22.37,3.066,30.369,7.787c1.803,6.763,4.905,12.226,7.008,18.689c-15.434-10.003-30.163-20.71-51.393-24.918
			c8.733-9.437,23.148-13.19,42.049-12.459c11.392-19.755,20.324-41.97,42.827-50.614
			C163.733,115.069,174.834,134.078,184.381,154.64z M115.078,150.746c2.65-6.435,8.51-9.659,14.016-13.237
			c-1.247-3.166,0.105-8.929-3.115-10.123C121.31,133.621,115.049,142.406,115.078,150.746z M157.905,138.287
			c6.878,2.207,10.523,7.646,14.795,12.459c-3.116-9.082-5.691-18.706-13.237-23.36
			C159.203,131.279,157.546,133.774,157.905,138.287z"/>
		<path fill-rule="evenodd" clip-rule="evenodd" d="M125.979,127.386c3.219,1.194,1.868,6.957,3.115,10.123
			c-5.506,3.578-11.366,6.803-14.016,13.237C115.049,142.406,121.31,133.621,125.979,127.386z"/>
		<path fill-rule="evenodd" clip-rule="evenodd" d="M159.463,127.386c7.546,4.654,10.121,14.278,13.237,23.36
			c-4.271-4.812-7.917-10.252-14.795-12.459C157.546,133.774,159.203,131.279,159.463,127.386z"/>
	</g>
</g>
<g id="Layer_1_copy_2">
	<g>
		<path display="none" fill-rule="evenodd" clip-rule="evenodd" fill="#FFFFFF" d="M76.683,103.95
			c-1.755,11.059,11.346,17.655,21.125,9.862C86.834,152,55.792,124.666,66,99.834C69.106,94.368,76.554,105.872,76.683,103.95z"/>
		<path fill-rule="evenodd" clip-rule="evenodd" d="M98.418,128.155C67.176,161.871,45.25,112.5,64.765,88.193
			C80.2,96.494,86,104.025,107.802,114.609L98.418,128.155z M68.125,97.75c-11.75,20.875,8.625,52.125,26.056,20.142
			C84.834,127,70.11,117.641,74.25,101.75L68.125,97.75z"/>
	</g>
	<g>
		<path display="none" fill-rule="evenodd" clip-rule="evenodd" fill="#FFFFFF" d="M210.503,103.95
			c1.755,11.059-10.346,17.655-20.125,9.862c10.974,38.188,41.016,10.854,30.808-13.978
			C218.08,94.368,210.632,105.872,210.503,103.95z"/>
		<path fill-rule="evenodd" clip-rule="evenodd" d="M179.383,114.609c21.803-10.584,27.604-18.116,43.037-26.416
			c19.516,24.307-2.41,73.678-33.652,39.962L179.383,114.609z M212.936,101.75c4.14,15.891-10.584,25.25-19.931,16.142
			c17.431,31.983,37.806,0.733,26.056-20.142L212.936,101.75z"/>
	</g>
</g>
<g id="Layer_5">
	<g>
		<path d="M90.808,75.311c1.147,1.573-3.696,1.704-3.696,1.704H86.22c-2.548-0.263-3.887-2.883-4.779-4.979
			c-1.72-3.735-4.651-9.238-7.709-12.908c-0.192,0-0.446-0.064-0.638-0.064h-2.166v14.283c0,1.047-0.128,1.834-0.702,2.62
			c-0.7,0.852-2.039,0.852-4.906,0.852h-1.274c0.063-3.801,0.127-8.452,0.127-13.562V41.438c0-2.358,0-4.259-0.064-6.093
			c0-0.328,0-0.852,0.064-1.31c0.51-0.394,0.956-0.458,1.848-0.655c0.127,0,0.319-0.066,0.382-0.066
			c0.191-0.065,0.574-0.065,0.893-0.131h0.382c0.765-0.066,1.721-0.131,2.485-0.131h3.059c0.51,0,1.21,0.065,1.72,0.065
			c7.646,0.459,11.596,4.194,11.596,12.515c0,5.372-4.269,10.22-5.989,11.597c2.485,3.667,4.523,7.862,6.308,11.269
			c1.784,3.34,3.122,5.961,3.886,6.748L90.808,75.311z M79.402,45.501c0-5.045-2.357-7.601-5.734-7.601
			c-1.083,0-2.039,0.066-2.74,0.131v15.987h2.548c0.892,0,1.784,0,2.358-0.262C77.682,53.035,79.402,50.546,79.402,45.501z"/>
		<path d="M92.184,49.825c-0.127-0.393-0.127-0.59-0.127-0.852c0-0.197,0.063-0.524,0.191-0.852c1.402-1.31,5.416-3.146,9.876-3.275
			c1.02,0,1.21,0,2.23,0.065c5.098,0.328,6.754,3.604,6.754,9.303v2.883c0,2.424,0,4.98-0.063,7.404
			c0,1.506-0.064,4.455-0.064,5.633c0,0-0.191,2.949,1.784,2.555c-0.063,0.918-0.127,2.425-0.127,2.818
			c-0.574,0.852-1.976,1.768-3.951,1.834c-1.465,0-2.994-0.982-3.823-1.899c-0.318,0.261-1.02,0.72-1.401,0.981
			c-1.529,0.787-3.123,0.917-4.907,0.917c-4.333,0-8.475-2.751-8.475-8.844c0-7.928,7.137-10.222,11.151-10.679
			c0.573-0.066,1.274-0.066,1.848-0.066c0.574,0,1.02,0,1.402,0.066v-3.211c0-2.752-0.255-4.194-2.358-4.194
			c-2.039,0-4.524,0.917-6.372,1.639c-0.701,0.328-1.402,0.523-2.358,0.523c-0.892-0.982-1.147-2.096-1.274-2.816L92.184,49.825z
			 M104.482,66.532v-4.325h-0.638c-0.637,0-1.338,0.066-1.975,0.131h0.064c-2.74,0.524-5.097,1.769-5.097,5.635
			c0,3.013,1.146,4.128,2.739,4.258h0.382c1.656,0,3.568-0.851,4.333-1.899l-0.063,0.065c0,0.066,0.063-0.393,0.127-0.786
			C104.482,68.825,104.482,67.842,104.482,66.532z"/>
		<path d="M124.937,49.825c-0.128-0.393-0.128-0.59-0.128-0.852c0-0.197,0.064-0.524,0.191-0.852
			c1.402-1.31,5.417-3.146,9.876-3.275c1.019,0,1.211,0,2.231,0.065c5.097,0.328,6.753,3.604,6.753,9.303v2.883
			c0,2.424,0,4.98-0.064,7.404c0,1.506-0.062,4.455-0.062,5.633c0,0-0.191,2.949,1.783,2.555c-0.064,0.918-0.128,2.425-0.128,2.818
			c-0.573,0.852-1.975,1.768-3.95,1.834c-1.466,0-2.996-0.982-3.824-1.899c-0.318,0.261-1.019,0.72-1.402,0.981
			c-1.529,0.787-3.122,0.917-4.906,0.917c-4.332,0-8.474-2.751-8.474-8.844c0-7.928,7.137-10.222,11.15-10.679
			c0.574-0.066,1.274-0.066,1.848-0.066c0.573,0,1.02,0,1.401,0.066v-3.211c0-2.752-0.255-4.194-2.358-4.194
			c-2.039,0-4.524,0.917-6.371,1.639c-0.701,0.328-1.402,0.523-2.357,0.523c-0.893-0.982-1.147-2.096-1.275-2.816L124.937,49.825z
			 M137.234,66.532v-4.325h-0.637c-0.638,0-1.338,0.066-1.975,0.131h0.063c-2.74,0.524-5.098,1.769-5.098,5.635
			c0,3.013,1.147,4.128,2.74,4.258h0.383c1.656,0,3.568-0.851,4.333-1.899l-0.064,0.065c0,0.066,0.064-0.393,0.128-0.786
			C137.234,68.825,137.234,67.842,137.234,66.532z"/>
		<path d="M159.695,74.459c-0.064,0.132-0.127,0.394-0.19,0.524l0.063-0.065c-0.318,1.113-0.511,1.768-1.466,2.096
			c-0.446,0.065-1.593,0.131-3.95,0.261c-0.829-0.654-1.785-2.162-2.039-3.21c-1.148-4.325-2.995-11.335-4.588-17.297
			c-1.402-5.438-2.357-8.911-2.74-9.762c0.573-1.048,2.422-1.637,6.309-1.637c0.637,0.524,1.02,1.441,1.21,2.227
			c0.574,2.556,1.211,5.308,1.849,7.994c0.382,1.769,0.7,3.537,1.02,5.045c0.765,3.799,0.828,4.455,1.273,6.158
			c0.383-1.639,1.02-4.324,1.657-7.142c0.382-1.572,2.358-9.892,2.676-11.465c0.127-0.394,0.127-0.721,0.127-0.786v-0.59
			c0.192-0.262,4.015-1.245,5.226-0.917c0.701,0.656,0.892,1.311,1.211,2.687c0.7,3.145,1.593,7.01,2.548,11.071
			c0.319,1.442,0.574,2.883,0.893,4.193c0.511,2.228,0.446,1.704,0.701,2.883c0.828-3.144,1.656-7.272,2.549-11.597
			c0.765-3.21,1.338-5.961,1.784-8.254c0.064-0.066,0.064-0.263,0.064-0.459c0.063-0.196,0.127-0.393,0.318-0.655
			c0.51-0.393,0.893-0.393,1.401-0.393c0.956,0,3.951,0.393,4.205,0.524c0.256,0.131,0.383,0.459,0.446,0.656
			c0.064,0.523-0.064,1.113-0.318,2.031l-0.255,0.654l0.064-0.065c-0.764,2.62-1.592,5.961-2.549,9.435
			c-1.4,5.373-2.994,11.4-4.332,15.854c-0.064,0.132-0.127,0.394-0.191,0.524l0.064-0.065c-0.255,1.113-0.447,1.768-1.402,2.096
			c-0.446,0.065-1.657,0.131-3.95,0.261c-0.829-0.654-1.785-2.162-2.104-3.21c-0.255-0.983-0.573-2.097-0.829-3.081
			c-0.19-0.654-0.317-1.244-0.445-1.704c-0.765-3.275-1.656-7.402-2.356-10.744c-0.766,3.472-1.912,7.862-2.805,11.4L159.695,74.459
			z"/>
		<path d="M183.92,49.825c-0.127-0.393-0.127-0.59-0.127-0.852c0-0.197,0.064-0.524,0.191-0.852c1.401-1.31,5.416-3.146,9.877-3.275
			c1.02,0,1.21,0,2.229,0.065c5.098,0.328,6.754,3.604,6.754,9.303v2.883c0,2.424,0,4.98-0.064,7.404
			c0,1.506-0.062,4.455-0.062,5.633c0,0-0.191,2.949,1.784,2.555c-0.064,0.918-0.128,2.425-0.128,2.818
			c-0.574,0.852-1.975,1.768-3.95,1.834c-1.466,0-2.995-0.982-3.823-1.899c-0.319,0.261-1.02,0.72-1.402,0.981
			c-1.529,0.787-3.122,0.917-4.905,0.917c-4.334,0-8.475-2.751-8.475-8.844c0-7.928,7.136-10.222,11.15-10.679
			c0.573-0.066,1.273-0.066,1.848-0.066c0.573,0,1.02,0,1.401,0.066v-3.211c0-2.752-0.255-4.194-2.356-4.194
			c-2.039,0-4.525,0.917-6.373,1.639c-0.7,0.328-1.401,0.523-2.357,0.523c-0.893-0.982-1.146-2.096-1.273-2.816L183.92,49.825z
			 M196.218,66.532v-4.325h-0.637c-0.638,0-1.339,0.066-1.976,0.131h0.063c-2.74,0.524-5.098,1.769-5.098,5.635
			c0,3.013,1.148,4.128,2.741,4.258h0.382c1.656,0,3.567-0.851,4.333-1.899l-0.064,0.065c0,0.066,0.064-0.393,0.128-0.786
			C196.218,68.825,196.218,67.842,196.218,66.532z"/>
		<path d="M214.666,72.755c-0.064,0.918-0.128,2.49-0.128,2.817c-0.638,0.918-2.039,1.769-3.95,1.835
			c-0.894,0-1.849-0.393-2.549-0.918c-1.211-0.852-1.849-2.162-1.849-3.473V39.604c0-3.145-0.063-5.372-0.128-7.272
			c0.766-1.834,3.059-2.031,6.309-2.031c0.382,1.508,0.446,3.014,0.446,6.355V70.2C212.817,70.2,212.627,73.149,214.666,72.755z"/>
		<path d="M223.09,45.698c0.51,1.047,0.573,1.965,0.573,4.716v21.949c0,1.506-0.256,2.556-0.893,3.603
			c-0.445,0.721-1.529,0.721-5.926,0.852v-5.373c0-1.9,0.063-3.932,0.063-6.027v-11.4c0-2.948-0.063-4.98-0.128-6.683
			c0.766-1.638,2.933-1.834,5.799-1.834L223.09,45.698z"/>
	</g>
	<g>
		<path d="M114.645,55.328c0-3.472-0.064-5.831-0.127-7.993c0.765-1.638,2.868-1.834,5.735-1.834l0.572,0.197
			c0.383,0.852,0.51,1.704,0.51,4.258c0,0-0.026,24.328-0.332,29.59c-0.313,5.333-3.518,11.375-13.929,13.602
			c-1.689,0.325-3.961,0.585-6.039,0.585c-3.246,0-6.232-0.714-6.883-2.856c-0.648-3.248,3.316-6.798,9.999-11.559
			c4.901-1.742,0.618,2.151-0.551,3.255c-2.078,1.753-4.434,5.22-4.173,6.388c0.129,0.521,2.854,0.639,5.774,0.064
			c4.702-1.043,8.236-1.967,9.209-8.212C115.384,74.567,114.645,55.328,114.645,55.328z"/>
	</g>
	<path d="M198.861,34.432c0.402,1.811,0.992,2.997-0.574,3.004c-1.567,0.007-105.239,0-105.239,0l0,0.002
		c-4.091-0.095-4.457,2.322-4.457,3.112c0,3.292,3.827,4.357,4.766,4.415c-0.403-1.812-0.993-2.998,0.574-3.006l0-0.001H199.13
		c4.131,0.113,4.496-2.321,4.496-3.113C203.626,35.555,199.801,34.488,198.861,34.432z"/>
	<g>
		<path d="M220.406,37.437c2.508,0,2.988,0.766,2.936,2.223c-0.055,1.456-0.694,2.454-3.255,2.454c-2.188,0-2.987-0.728-2.987-2.378
			C217.1,38.241,218.167,37.437,220.406,37.437z"/>
	</g>
</g>
<g id="Layer_7" display="none">
	<g display="inline">
		<path fill-rule="evenodd" clip-rule="evenodd" fill="#FFFFFF" d="M184.381,154.64c18.946-1.038,32.715,3.104,42.049,11.681
			c-19.016,6.161-35.994,14.36-49.836,25.696c-0.059-5.777,4.778-13.386,7.008-19.468c8.613-3.326,17.759-6.121,29.59-6.229
			c-8.826-4.137-25.807-6.521-33.482-1.559c-6.999,4.527-14.674,27.995-18.689,36.599c-6.731,14.424-12.842,26.458-17.131,37.377
			c-12.729-23.87-22.813-50.383-35.82-73.976c-9.755-3.386-25.266-2.986-34.262,0.779c10.667,2.053,22.37,3.066,30.369,7.787
			c1.803,6.763,4.905,12.226,7.008,18.689c-15.434-10.003-30.163-20.71-51.393-24.918c8.733-9.437,23.148-13.19,42.049-12.459
			c11.392-19.755,20.324-41.97,42.827-50.614C163.733,115.069,174.834,134.078,184.381,154.64z M115.078,150.746
			c2.65-6.435,8.51-9.659,14.016-13.237c-1.247-3.166,0.105-8.929-3.115-10.123C121.31,133.621,115.049,142.406,115.078,150.746z
			 M157.905,138.287c6.878,2.207,10.523,7.646,14.795,12.459c-3.116-9.082-5.691-18.706-13.237-23.36
			C159.203,131.279,157.546,133.774,157.905,138.287z"/>
	</g>
	<g display="inline">
		<path fill="#FFFFFF" d="M98.418,128.155C67.176,161.871,45.25,112.5,64.765,88.193C80.2,96.494,86,104.025,107.802,114.609
			L98.418,128.155z M68.125,97.75c-11.75,20.875,8.625,52.125,26.056,20.142C84.834,127,70.11,117.641,74.25,101.75L68.125,97.75z"
			/>
	</g>
	<g display="inline">
		<path fill="#FFFFFF" d="M179.383,114.609c21.803-10.584,27.604-18.116,43.037-26.416c19.516,24.307-2.41,73.678-33.652,39.962
			L179.383,114.609z M212.936,101.75c4.14,15.891-10.584,25.25-19.931,16.142c17.431,31.983,37.806,0.733,26.056-20.142
			L212.936,101.75z"/>
	</g>
</g>
</svg>
